<svg width="1024" height="1024" viewBox="0 0 1024 1024" fill="none" xmlns="http://www.w3.org/2000/svg">
<g clip-path="url(#clip0_2673_3099)">
<path fill-rule="evenodd" clip-rule="evenodd" d="M444.646 307.556C443.516 309.01 442.95 310.788 442.95 312.889C442.95 314.989 443.516 316.767 444.646 318.221C445.94 319.676 447.636 321.695 449.737 324.281C454.261 329.452 459.271 334.866 464.765 340.521C470.259 346.016 476.239 351.348 482.702 356.519C485.126 358.458 486.903 359.751 488.035 360.398C489.328 360.882 490.539 361.125 491.671 361.125C492.802 361.125 494.014 360.882 495.306 360.398C496.599 359.751 498.296 358.458 500.397 356.519C506.376 351.348 512.193 346.016 517.848 340.521C523.666 335.027 528.756 329.775 533.12 324.766C535.221 322.019 536.917 319.918 538.209 318.464C539.664 316.848 540.391 314.989 540.391 312.889C540.391 310.788 539.664 308.93 538.209 307.314C537.154 305.995 535.885 304.406 534.398 302.549L533.362 301.254C523.989 290.589 513.001 279.842 500.397 269.016C496.519 265.945 493.609 264.41 491.671 264.41C489.731 264.41 486.903 265.945 483.187 269.016C477.208 274.187 471.228 279.6 465.25 285.256C459.432 290.75 454.261 296.083 449.737 301.254C447.636 303.839 445.94 305.94 444.646 307.556ZM453.13 406.21V622.423C453.13 642.138 450.948 657.408 446.585 668.235C442.384 679.224 437.536 687.223 432.042 692.232C426.71 697.242 422.265 700.959 418.711 703.383C415.317 705.645 413.62 707.826 413.62 709.927C413.62 712.189 414.913 714.855 417.498 717.925L447.07 754.042C451.434 759.214 456.523 760.344 462.341 757.435C473.007 752.103 483.51 744.831 493.852 735.62C504.194 726.572 512.759 714.129 519.546 698.292C526.332 682.617 529.727 662.257 529.727 637.209V406.21C529.727 401.361 528.675 398.049 526.575 396.272C524.636 394.332 521.243 393.363 516.394 393.363H466.462C461.614 393.363 458.139 394.332 456.039 396.272C454.099 398.049 453.13 401.361 453.13 406.21ZM255.759 747.426H274.375H289.515H308.131V701.756H289.515H287.778C274.871 701.756 268.417 693.151 268.417 675.942V579.636C268.417 544.226 254.352 521.39 226.222 511.131C254.352 499.878 268.417 477.043 268.417 442.625V346.319C268.417 328.779 274.375 320.009 286.289 320.009H289.515H308.131V274.339H289.515H274.375H255.759C239.542 274.339 226.47 279.634 216.542 290.224C206.282 301.476 201.153 317.527 201.153 338.377V430.214C201.153 467.611 189.239 486.971 165.41 488.295V533.469C189.239 536.117 201.153 555.312 201.153 591.054V682.892C201.153 703.741 205.951 719.627 215.549 730.548C225.477 741.801 238.881 747.426 255.759 747.426ZM702.536 274.339H721.152C737.699 274.339 750.937 279.634 760.866 290.224C771.456 301.807 776.751 318.023 776.751 338.873V430.711C776.751 467.777 788.665 486.971 812.493 488.295V533.469C788.665 535.124 776.751 554.815 776.751 592.543V683.885C776.751 704.073 771.787 719.627 761.858 730.548C751.93 741.801 738.362 747.426 721.152 747.426H702.536H687.892H669.276V701.756H687.892H690.126C702.371 701.756 708.493 693.151 708.493 675.942V579.14C708.493 561.93 712.63 547.204 720.904 534.959C728.847 523.376 738.94 515.433 751.185 511.131C722.725 500.209 708.493 477.209 708.493 442.128V346.319C708.493 328.779 702.868 320.009 691.615 320.009H687.892H669.276V274.339H687.892H702.536Z" fill="black"/>
<path d="M444.646 307.556L434.955 299.803L434.903 299.87L434.849 299.937L444.646 307.556ZM444.646 318.221L434.849 325.84L435.1 326.162L435.371 326.467L444.646 318.221ZM449.737 324.281L440.104 332.107L440.248 332.283L440.397 332.453L449.737 324.281ZM464.765 340.522L455.863 349.169L455.926 349.233L455.99 349.297L464.765 340.522ZM488.035 360.398L481.878 371.173L482.744 371.668L483.677 372.018L488.035 360.398ZM495.306 360.398L499.664 372.018L500.274 371.789L500.856 371.498L495.306 360.398ZM500.397 356.52L492.278 347.133L492.126 347.264L491.979 347.4L500.397 356.52ZM517.848 340.522L509.327 331.499L509.264 331.559L509.202 331.62L517.848 340.522ZM533.119 324.766L542.478 332.917L542.738 332.619L542.978 332.305L533.119 324.766ZM538.209 318.464L528.986 310.161L528.959 310.19L528.932 310.22L538.209 318.464ZM538.209 307.314L528.518 315.065L528.743 315.348L528.986 315.617L538.209 307.314ZM533.361 301.254L543.053 293.501L542.874 293.277L542.684 293.062L533.361 301.254ZM500.397 269.016L508.483 259.602L508.295 259.44L508.1 259.286L500.397 269.016ZM483.187 269.016L475.283 259.448L475.175 259.537L475.068 259.629L483.187 269.016ZM465.25 285.256L473.771 294.279L473.779 294.272L465.25 285.256ZM449.737 301.254L440.397 293.082L440.248 293.252L440.104 293.428L449.737 301.254ZM446.585 668.235L435.074 663.596L435.033 663.7L434.993 663.803L446.585 668.235ZM432.042 692.232L423.681 683.06L423.612 683.124L423.545 683.187L432.042 692.232ZM418.711 703.383L425.595 713.709L425.648 713.673L425.702 713.637L418.711 703.383ZM417.498 717.925L427.1 710.063L427.047 709.997L426.991 709.932L417.498 717.925ZM447.07 754.042L437.468 761.904L437.526 761.975L437.585 762.046L447.07 754.042ZM493.851 735.62L485.68 726.28L485.639 726.316L485.598 726.353L493.851 735.62ZM519.546 698.292L508.157 693.361L508.147 693.382L508.138 693.403L519.546 698.292ZM526.575 396.272L517.797 405.046L518.164 405.412L518.559 405.747L526.575 396.272ZM456.039 396.272L464.424 405.421L464.441 405.406L464.458 405.39L456.039 396.272ZM308.131 747.426V759.837H320.542V747.426H308.131ZM308.131 701.755H320.542V689.345H308.131V701.755ZM226.222 511.131L221.613 499.608L191.469 511.666L221.97 522.79L226.222 511.131ZM308.131 320.009V332.42H320.542V320.009H308.131ZM308.131 274.339H320.542V261.928H308.131V274.339ZM216.542 290.224L207.488 281.736L207.429 281.799L207.371 281.863L216.542 290.224ZM165.41 488.295L164.722 475.904L153 476.555V488.295H165.41ZM165.41 533.469H153V544.578L164.04 545.804L165.41 533.469ZM215.549 730.548L206.226 738.74L206.235 738.75L206.243 738.759L215.549 730.548ZM760.865 290.224L770.024 281.85L769.972 281.793L769.919 281.736L760.865 290.224ZM812.493 488.295H824.904V476.555L813.182 475.904L812.493 488.295ZM812.493 533.469L813.353 545.85L824.904 545.048V533.469H812.493ZM761.858 730.548L752.676 722.199L752.614 722.268L752.553 722.337L761.858 730.548ZM669.276 747.426H656.866V759.837H669.276V747.426ZM669.276 701.755V689.345H656.866V701.755H669.276ZM720.904 534.959L710.669 527.941L710.644 527.975L710.62 528.011L720.904 534.959ZM751.185 511.131L755.299 522.84L787.162 511.643L755.632 499.544L751.185 511.131ZM669.276 320.009H656.866V332.42H669.276V320.009ZM669.276 274.339V261.928H656.866V274.339H669.276ZM455.36 312.889C455.36 312.957 455.349 313.273 455.2 313.743C455.045 314.232 454.787 314.732 454.443 315.176L434.849 299.937C431.792 303.87 430.539 308.434 430.539 312.889H455.36ZM454.443 310.603C454.787 311.045 455.045 311.546 455.2 312.035C455.349 312.505 455.36 312.821 455.36 312.889H430.539C430.539 317.344 431.792 321.908 434.849 325.84L454.443 310.603ZM459.369 316.455C457.221 313.812 455.393 311.63 453.922 309.976L435.371 326.467C436.486 327.721 438.051 329.58 440.104 332.107L459.369 316.455ZM473.667 331.874C468.301 326.351 463.441 321.096 459.076 316.109L440.397 332.453C445.082 337.808 450.24 343.381 455.863 349.169L473.667 331.874ZM490.455 346.829C484.325 341.925 478.691 336.896 473.54 331.746L455.99 349.297C461.827 355.135 468.151 360.772 474.949 366.21L490.455 346.829ZM494.191 349.622C494.196 349.625 493.886 349.44 493.153 348.907C492.465 348.407 491.573 347.723 490.455 346.829L474.949 366.21C477.379 368.154 479.821 369.999 481.878 371.173L494.191 349.622ZM491.671 348.714C492.315 348.714 492.589 348.851 492.392 348.777L483.677 372.018C486.065 372.914 488.763 373.535 491.671 373.535V348.714ZM490.949 348.777C490.753 348.851 491.026 348.714 491.671 348.714V373.535C494.577 373.535 497.275 372.914 499.664 372.018L490.949 348.777ZM491.979 347.4C491.126 348.188 490.481 348.726 490.028 349.072C489.534 349.447 489.466 349.443 489.756 349.297L500.856 371.498C503.775 370.039 506.521 367.756 508.815 365.639L491.979 347.4ZM509.202 331.62C503.718 336.947 498.077 342.118 492.278 347.133L508.514 365.906C514.675 360.579 520.668 355.085 526.496 349.423L509.202 331.62ZM523.761 316.615C519.71 321.267 514.908 326.228 509.327 331.499L526.371 349.544C532.423 343.827 537.803 338.284 542.478 332.917L523.761 316.615ZM528.932 310.22C527.34 312.012 525.429 314.392 523.261 317.227L542.978 332.305C545.011 329.645 546.494 327.825 547.486 326.708L528.932 310.22ZM527.98 312.889C527.98 312.474 528.058 311.922 528.289 311.335C528.516 310.755 528.803 310.363 528.986 310.161L547.434 326.767C550.86 322.959 552.801 318.171 552.801 312.889H527.98ZM528.986 315.617C528.803 315.415 528.516 315.023 528.289 314.442C528.058 313.855 527.98 313.304 527.98 312.889H552.801C552.801 307.606 550.86 302.818 547.434 299.011L528.986 315.617ZM524.706 310.302C526.193 312.16 527.463 313.747 528.518 315.065L547.902 299.562C546.845 298.243 545.575 296.654 544.089 294.797L524.706 310.302ZM523.671 309.007L524.706 310.302L544.089 294.797L543.053 293.501L523.671 309.007ZM492.31 278.43C504.547 288.941 515.108 299.283 524.04 309.446L542.684 293.062C532.871 281.895 521.456 270.745 508.483 259.602L492.31 278.43ZM491.671 276.821C490.559 276.821 489.812 276.609 489.56 276.53C489.289 276.444 489.262 276.405 489.514 276.537C489.752 276.663 490.143 276.892 490.702 277.27C491.253 277.645 491.915 278.13 492.694 278.746L508.1 259.286C505.83 257.488 503.472 255.839 501.099 254.586C498.946 253.45 495.606 252 491.671 252V276.821ZM491.091 278.584C491.821 277.98 492.439 277.51 492.949 277.15C493.465 276.787 493.817 276.577 494.016 276.469C494.227 276.354 494.162 276.412 493.854 276.511C493.559 276.606 492.79 276.821 491.671 276.821V252C487.693 252 484.346 253.476 482.174 254.655C479.804 255.942 477.486 257.628 475.283 259.448L491.091 278.584ZM473.779 294.272C479.629 288.738 485.471 283.448 491.305 278.403L475.068 259.629C468.945 264.926 462.829 270.463 456.722 276.24L473.779 294.272ZM459.076 309.426C463.304 304.595 468.194 299.545 473.771 294.279L456.728 276.234C450.67 281.955 445.218 287.571 440.397 293.082L459.076 309.426ZM454.338 315.309C455.602 313.728 457.278 311.654 459.369 309.08L440.104 293.428C437.994 296.025 436.275 298.153 434.955 299.803L454.338 315.309ZM465.541 622.423V406.21H440.72V622.423H465.541ZM458.097 672.874C463.327 659.896 465.541 642.785 465.541 622.423H440.72C440.72 641.493 438.571 654.921 435.074 663.596L458.097 672.874ZM440.403 701.403C447.926 694.545 453.645 684.521 458.177 672.667L434.993 663.803C431.123 673.927 427.146 679.902 423.681 683.06L440.403 701.403ZM425.702 713.637C430.031 710.685 435.013 706.469 440.54 701.276L423.545 683.187C418.404 688.016 414.5 691.233 411.719 693.129L425.702 713.637ZM426.031 709.927C426.031 712.397 424.999 713.936 424.688 714.336C424.427 714.671 424.53 714.418 425.595 713.709L411.826 693.057C408.038 695.583 401.21 701.01 401.21 709.927H426.031ZM426.991 709.932C426.583 709.446 426.289 709.052 426.083 708.748C425.875 708.441 425.782 708.262 425.756 708.209C425.686 708.061 426.031 708.694 426.031 709.927H401.21C401.21 716.652 404.846 722.167 408.006 725.92L426.991 709.932ZM456.672 746.18L427.1 710.063L407.896 725.787L437.468 761.904L456.672 746.18ZM456.791 746.335C456.264 746.599 456.049 746.622 456.117 746.611C456.153 746.604 456.248 746.593 456.388 746.597C456.529 746.599 456.688 746.618 456.852 746.654C457.015 746.69 457.15 746.737 457.248 746.781C457.344 746.822 457.382 746.85 457.363 746.838C457.319 746.807 457.032 746.604 456.555 746.04L437.585 762.046C440.995 766.088 445.573 769.574 451.468 770.884C457.429 772.208 463.081 770.941 467.891 768.535L456.791 746.335ZM485.598 726.353C475.944 734.95 466.336 741.562 456.791 746.335L467.891 768.535C479.677 762.643 491.075 754.712 502.106 744.888L485.598 726.353ZM508.138 693.403C501.902 707.955 494.316 718.724 485.68 726.28L502.024 744.96C514.073 734.419 523.614 720.303 530.953 703.18L508.138 693.403ZM517.316 637.209C517.316 661.285 514.032 679.793 508.157 693.361L530.934 703.224C538.633 685.442 542.137 663.23 542.137 637.209H517.316ZM517.316 406.21V637.209H542.137V406.21H517.316ZM518.559 405.747C518.007 405.279 517.634 404.8 517.402 404.425C517.289 404.244 517.215 404.097 517.171 403.996C517.126 403.897 517.109 403.841 517.109 403.841C517.109 403.84 517.124 403.887 517.145 403.99C517.167 404.093 517.194 404.243 517.22 404.447C517.274 404.859 517.316 405.437 517.316 406.21H542.137C542.137 400.344 541.004 392.222 534.59 386.798L518.559 405.747ZM516.394 405.773C517.201 405.773 517.831 405.814 518.308 405.87C518.788 405.927 519.06 405.993 519.166 406.023C519.402 406.091 518.689 405.937 517.797 405.046L535.352 387.499C529.839 381.982 522.206 380.952 516.394 380.952V405.773ZM466.461 405.773H516.394V380.952H466.461V405.773ZM464.458 405.39C463.734 406.059 463.23 406.134 463.556 406.044C463.907 405.946 464.805 405.773 466.461 405.773V380.952C460.508 380.952 453.155 382.042 447.62 387.154L464.458 405.39ZM465.541 406.21C465.541 405.403 465.582 404.783 465.636 404.326C465.691 403.866 465.752 403.631 465.768 403.575C465.81 403.43 465.569 404.372 464.424 405.421L447.653 387.123C441.68 392.598 440.72 400.567 440.72 406.21H465.541ZM274.375 735.016H255.759V759.837H274.375V735.016ZM289.515 735.016H274.375V759.837H289.515V735.016ZM308.131 735.016H289.515V759.837H308.131V735.016ZM295.721 701.755V747.426H320.542V701.755H295.721ZM289.515 714.166H308.131V689.345H289.515V714.166ZM287.778 714.166H289.515V689.345H287.778V714.166ZM256.007 675.942C256.007 685.74 257.781 695.352 263.329 702.748C269.381 710.818 278.296 714.166 287.778 714.166V689.345C284.353 689.345 283.588 688.392 283.186 687.856C282.28 686.648 280.828 683.353 280.828 675.942H256.007ZM256.007 579.636V675.942H280.828V579.636H256.007ZM221.97 522.79C233.734 527.081 241.905 533.699 247.302 542.461C252.801 551.389 256.007 563.512 256.007 579.636H280.828C280.828 560.351 277.002 543.351 268.435 529.444C259.767 515.37 246.841 505.44 230.474 499.471L221.97 522.79ZM256.007 442.625C256.007 458.178 252.832 470.078 247.302 479.056C241.844 487.917 233.541 494.837 221.613 499.608L230.831 522.654C247.033 516.172 259.828 506.047 268.435 492.073C276.971 478.217 280.828 461.491 280.828 442.625H256.007ZM256.007 346.32V442.625H280.828V346.32H256.007ZM286.289 307.599C276.815 307.599 268.223 311.364 262.619 319.614C257.599 327.005 256.007 336.533 256.007 346.32H280.828C280.828 338.567 282.215 334.939 283.151 333.56C283.511 333.03 283.764 332.88 283.938 332.795C284.166 332.683 284.837 332.42 286.289 332.42V307.599ZM289.515 307.599H286.289V332.42H289.515V307.599ZM308.131 307.599H289.515V332.42H308.131V307.599ZM295.721 274.339V320.009H320.542V274.339H295.721ZM289.515 286.749H308.131V261.928H289.515V286.749ZM274.375 286.749H289.515V261.928H274.375V286.749ZM255.759 286.749H274.375V261.928H255.759V286.749ZM225.596 298.712C232.89 290.931 242.529 286.749 255.759 286.749V261.928C236.556 261.928 220.05 268.337 207.488 281.736L225.596 298.712ZM213.563 338.377C213.563 319.468 218.202 306.823 225.712 298.586L207.371 281.863C194.363 296.13 188.742 315.587 188.742 338.377H213.563ZM213.563 430.214V338.377H188.742V430.214H213.563ZM166.099 500.687C181.832 499.812 194.576 492.628 202.787 479.287C210.492 466.764 213.563 449.881 213.563 430.214H188.742C188.742 447.944 185.856 459.44 181.648 466.278C177.944 472.296 172.817 475.454 164.722 475.904L166.099 500.687ZM177.821 533.469V488.295H153V533.469H177.821ZM213.563 591.054C213.563 572.098 210.455 555.702 202.762 543.306C194.659 530.251 182.211 522.849 166.781 521.135L164.04 545.804C172.438 546.738 177.862 550.256 181.673 556.397C185.893 563.196 188.742 574.268 188.742 591.054H213.563ZM213.563 682.892V591.054H188.742V682.892H213.563ZM224.871 722.356C217.977 714.511 213.563 702.017 213.563 682.892H188.742C188.742 705.465 193.926 724.742 206.226 738.74L224.871 722.356ZM255.759 735.016C241.946 735.016 232.118 730.569 224.855 722.337L206.243 738.759C218.836 753.032 235.815 759.837 255.759 759.837V735.016ZM721.152 261.928H702.536V286.749H721.152V261.928ZM769.919 281.736C757.307 268.283 740.603 261.928 721.152 261.928V286.749C734.796 286.749 744.567 290.985 751.812 298.712L769.919 281.736ZM789.161 338.873C789.161 315.963 783.315 296.387 770.024 281.85L751.706 298.598C759.596 307.228 764.34 320.084 764.34 338.873H789.161ZM789.161 430.711V338.873H764.34V430.711H789.161ZM813.182 475.904C805.041 475.452 799.914 472.296 796.23 466.361C792.044 459.616 789.161 448.263 789.161 430.711H764.34C764.34 450.225 767.414 467.003 775.142 479.452C783.373 492.711 796.117 499.815 811.804 500.687L813.182 475.904ZM824.904 533.469V488.295H800.083V533.469H824.904ZM789.161 592.543C789.161 574.646 792.047 562.941 796.305 555.904C800.079 549.664 805.286 546.41 813.353 545.85L811.633 521.089C795.872 522.183 783.208 529.602 775.068 543.054C767.412 555.709 764.34 572.713 764.34 592.543H789.161ZM789.161 683.884V592.543H764.34V683.884H789.161ZM771.041 738.896C783.706 724.964 789.161 706.014 789.161 683.884H764.34C764.34 702.132 759.868 714.289 752.676 722.199L771.041 738.896ZM721.152 759.837C741.342 759.837 758.522 753.086 771.165 738.759L752.553 722.337C745.337 730.514 735.379 735.016 721.152 735.016V759.837ZM702.536 759.837H721.152V735.016H702.536V759.837ZM687.892 759.837H702.536V735.016H687.892V759.837ZM669.276 759.837H687.892V735.016H669.276V759.837ZM656.866 701.755V747.426H681.687V701.755H656.866ZM687.892 689.345H669.276V714.166H687.892V689.345ZM690.126 689.345H687.892V714.166H690.126V689.345ZM696.083 675.942C696.083 683.451 694.679 686.857 693.789 688.108C693.445 688.59 693.174 688.774 692.897 688.903C692.554 689.065 691.739 689.345 690.126 689.345V714.166C699.529 714.166 708.228 710.628 714.013 702.498C719.246 695.143 720.904 685.642 720.904 675.942H696.083ZM696.083 579.14V675.942H720.904V579.14H696.083ZM710.62 528.011C700.744 542.628 696.083 559.872 696.083 579.14H720.904C720.904 563.989 724.516 551.78 731.187 541.906L710.62 528.011ZM747.071 499.423C732.131 504.671 719.973 514.372 710.669 527.941L731.139 541.977C737.72 532.38 745.748 526.196 755.299 522.84L747.071 499.423ZM696.083 442.128C696.083 461.303 699.972 478.254 708.612 492.22C717.336 506.318 730.312 516.414 746.739 522.717L755.632 499.544C743.596 494.926 735.228 488.062 729.72 479.16C724.129 470.124 720.904 458.035 720.904 442.128H696.083ZM696.083 346.32V442.128H720.904V346.32H696.083ZM691.615 332.42C692.8 332.42 693.232 332.643 693.277 332.666C693.282 332.669 693.477 332.741 693.828 333.288C694.754 334.73 696.083 338.478 696.083 346.32H720.904C720.904 336.621 719.421 327.214 714.72 319.886C709.414 311.616 701.064 307.599 691.615 307.599V332.42ZM687.892 332.42H691.615V307.599H687.892V332.42ZM669.276 332.42H687.892V307.599H669.276V332.42ZM656.866 274.339V320.009H681.687V274.339H656.866ZM687.892 261.928H669.276V286.749H687.892V261.928ZM702.536 261.928H687.892V286.749H702.536V261.928Z" fill="black"/>
<path d="M494.287 307.557L487.019 301.743L486.978 301.792L486.94 301.843L494.287 307.557ZM494.287 318.222L486.94 323.936L487.127 324.178L487.329 324.406L494.287 318.222ZM499.377 324.282L492.153 330.152L492.26 330.284L492.372 330.411L499.377 324.282ZM514.405 340.523L507.728 347.008L507.776 347.056L507.824 347.104L514.405 340.523ZM537.675 360.399L533.057 368.48L533.706 368.851L534.407 369.114L537.675 360.399ZM544.946 360.399L548.215 369.114L548.672 368.942L549.109 368.724L544.946 360.399ZM550.037 356.52L543.948 349.48L543.834 349.579L543.724 349.681L550.037 356.52ZM567.488 340.523L561.098 333.756L561.05 333.801L561.003 333.846L567.488 340.523ZM582.759 324.767L589.779 330.88L589.974 330.657L590.154 330.421L582.759 324.767ZM587.849 318.465L580.931 312.238L580.911 312.26L580.892 312.282L587.849 318.465ZM587.849 307.315L580.58 313.128L580.75 313.34L580.931 313.542L587.849 307.315ZM583.001 301.255L590.27 295.441L590.136 295.272L589.993 295.111L583.001 301.255ZM550.037 269.017L556.102 261.956L555.96 261.835L555.814 261.719L550.037 269.017ZM532.827 269.017L526.899 261.841L526.818 261.908L526.739 261.977L532.827 269.017ZM514.891 285.257L521.281 292.024L521.287 292.019L514.891 285.257ZM499.377 301.255L492.372 295.126L492.26 295.254L492.153 295.386L499.377 301.255ZM496.225 668.236L487.593 664.757L487.562 664.834L487.532 664.912L496.225 668.236ZM481.683 692.233L475.412 685.355L475.36 685.402L475.309 685.449L481.683 692.233ZM468.351 703.383L473.514 711.129L473.554 711.101L473.594 711.074L468.351 703.383ZM467.139 717.926L474.341 712.03L474.3 711.98L474.259 711.93L467.139 717.926ZM496.71 754.043L489.509 759.94L489.552 759.993L489.597 760.046L496.71 754.043ZM543.492 735.621L537.363 728.616L537.332 728.644L537.301 728.671L543.492 735.621ZM569.186 698.293L560.644 694.594L560.637 694.61L560.63 694.627L569.186 698.293ZM576.215 396.273L569.632 402.853L569.907 403.128L570.204 403.379L576.215 396.273ZM505.68 396.273L511.968 403.134L511.98 403.123L511.994 403.111L505.68 396.273ZM357.772 747.427V756.735H367.08V747.427H357.772ZM357.772 701.756H367.08V692.449H357.772V701.756ZM275.863 511.132L272.406 502.489L249.799 511.532L272.674 519.876L275.863 511.132ZM357.772 320.01V329.318H367.08V320.01H357.772ZM357.772 274.34H367.08V265.032H357.772V274.34ZM266.183 290.225L259.393 283.859L259.349 283.906L259.305 283.954L266.183 290.225ZM215.052 488.296L214.536 479.003L205.744 479.491V488.296H215.052ZM215.052 533.47H205.744V541.802L214.024 542.721L215.052 533.47ZM265.19 730.549L258.199 736.693L258.205 736.699L258.211 736.707L265.19 730.549ZM810.504 290.225L817.374 283.944L817.335 283.902L817.295 283.859L810.504 290.225ZM862.132 488.296H871.44V479.491L862.648 479.003L862.132 488.296ZM862.132 533.47L862.776 542.756L871.44 542.154V533.47H862.132ZM811.497 730.549L804.609 724.288L804.564 724.339L804.518 724.391L811.497 730.549ZM718.915 747.427H709.608V756.735H718.915V747.427ZM718.915 701.756V692.449H709.608V701.756H718.915ZM770.543 534.96L762.867 529.695L762.848 529.722L762.831 529.748L770.543 534.96ZM800.824 511.132L803.91 519.913L827.807 511.516L804.159 502.442L800.824 511.132ZM718.915 320.01H709.608V329.318H718.915V320.01ZM718.915 274.34V265.032H709.608V274.34H718.915ZM501.898 312.89C501.898 312.678 501.925 312.673 501.884 312.803C501.863 312.866 501.832 312.946 501.785 313.035C501.739 313.124 501.686 313.204 501.634 313.272L486.94 301.843C484.363 305.156 483.282 309.023 483.282 312.89H501.898ZM501.634 312.508C501.687 312.576 501.739 312.656 501.785 312.744C501.832 312.833 501.863 312.913 501.884 312.976C501.925 313.107 501.898 313.101 501.898 312.89H483.282C483.282 316.756 484.363 320.624 486.94 323.936L501.634 312.508ZM506.6 318.413C504.465 315.784 502.669 313.643 501.244 312.039L487.329 324.406C488.49 325.711 490.087 327.609 492.153 330.152L506.6 318.413ZM521.082 334.037C515.684 328.481 510.786 323.186 506.382 318.153L492.372 330.411C497.017 335.72 502.138 341.253 507.728 347.008L521.082 334.037ZM538.156 349.252C531.944 344.282 526.223 339.177 520.987 333.941L507.824 347.104C513.576 352.856 519.812 358.417 526.528 363.788L538.156 349.252ZM542.293 352.317C541.855 352.067 540.576 351.188 538.156 349.252L526.528 363.788C528.955 365.731 531.233 367.438 533.057 368.48L542.293 352.317ZM541.311 351.818C541.511 351.818 541.414 351.86 540.942 351.683L534.407 369.114C536.521 369.907 538.848 370.434 541.311 370.434V351.818ZM541.678 351.683C541.208 351.86 541.11 351.818 541.311 351.818V370.434C543.773 370.434 546.1 369.907 548.215 369.114L541.678 351.683ZM543.724 349.681C542.821 350.514 542.1 351.119 541.548 351.54C540.966 351.984 540.728 352.101 540.784 352.073L549.109 368.724C551.62 367.468 554.105 365.432 556.35 363.36L543.724 349.681ZM561.003 333.846C555.476 339.215 549.791 344.426 543.948 349.48L556.125 363.56C562.24 358.272 568.19 352.818 573.974 347.199L561.003 333.846ZM575.74 318.654C571.611 323.395 566.739 328.429 561.098 333.756L573.88 347.289C579.874 341.628 585.182 336.158 589.779 330.88L575.74 318.654ZM580.892 312.282C579.375 313.989 577.517 316.3 575.365 319.113L590.154 330.421C592.204 327.74 593.739 325.849 594.807 324.648L580.892 312.282ZM580.723 312.89C580.723 312.875 580.725 312.822 580.74 312.738C580.755 312.654 580.781 312.561 580.818 312.467C580.898 312.264 580.977 312.187 580.931 312.238L594.768 324.692C597.702 321.432 599.339 317.377 599.339 312.89H580.723ZM580.931 313.542C580.977 313.592 580.898 313.516 580.818 313.313C580.781 313.219 580.755 313.126 580.74 313.041C580.725 312.958 580.723 312.904 580.723 312.89H599.339C599.339 308.403 597.702 304.347 594.768 301.088L580.931 313.542ZM576.77 308.365C578.256 310.222 579.526 311.81 580.58 313.128L595.118 301.501C594.063 300.182 592.792 298.593 591.306 296.736L576.77 308.365ZM575.734 307.069L576.77 308.365L591.306 296.736L590.27 295.441L575.734 307.069ZM543.972 276.077C556.3 286.667 566.968 297.11 576.011 307.399L589.993 295.111C580.291 284.069 568.983 273.02 556.102 261.956L543.972 276.077ZM541.311 273.719C540.599 273.719 540.174 273.585 540.137 273.573C540.085 273.557 540.231 273.599 540.602 273.794C541.367 274.198 542.568 274.976 544.26 276.315L555.814 261.719C553.627 259.987 551.434 258.462 549.291 257.331C547.313 256.287 544.506 255.104 541.311 255.104V273.719ZM538.755 276.193C540.355 274.871 541.48 274.121 542.176 273.743C542.511 273.561 542.625 273.532 542.543 273.559C542.47 273.582 542.03 273.719 541.311 273.719V255.104C538.086 255.104 535.277 256.306 533.295 257.382C531.163 258.54 529.015 260.092 526.899 261.841L538.755 276.193ZM521.287 292.019C527.169 286.454 533.046 281.134 538.916 276.057L526.739 261.977C520.65 267.242 514.569 272.748 508.494 278.495L521.287 292.019ZM506.382 307.384C510.683 302.468 515.644 297.348 521.281 292.024L508.499 278.49C502.501 284.155 497.12 289.7 492.372 295.126L506.382 307.384ZM501.554 313.372C502.826 311.782 504.507 309.701 506.602 307.124L492.153 295.386C490.045 297.98 488.332 300.101 487.019 301.743L501.554 313.372ZM512.078 622.424V406.211H493.463V622.424H512.078ZM504.859 671.716C509.872 659.275 512.078 642.624 512.078 622.424H493.463C493.463 641.655 491.306 655.544 487.593 664.757L504.859 671.716ZM487.954 699.112C494.969 692.715 500.471 683.198 504.92 671.56L487.532 664.912C483.578 675.253 479.384 681.733 475.412 685.355L487.954 699.112ZM473.594 711.074C477.73 708.254 482.577 704.163 488.055 699.016L475.309 685.449C470.121 690.323 466.082 693.666 463.108 695.693L473.594 711.074ZM472.568 709.927C472.568 710.684 472.411 711.315 472.232 711.765C472.062 712.195 471.893 712.415 471.88 712.432C471.867 712.447 471.963 712.324 472.245 712.077C472.524 711.834 472.935 711.515 473.514 711.129L463.187 695.639C459.498 698.099 453.953 702.714 453.953 709.927H472.568ZM474.259 711.93C473.299 710.792 472.82 710.006 472.606 709.563C472.39 709.12 472.568 709.287 472.568 709.927H453.953C453.953 715.537 457.003 720.34 460.019 723.922L474.259 711.93ZM503.912 748.147L474.341 712.03L459.937 723.823L489.509 759.94L503.912 748.147ZM507.819 749.111C507.061 749.491 506.547 749.627 506.257 749.674C505.991 749.718 505.869 749.694 505.82 749.683C505.787 749.677 505.085 749.534 503.825 748.041L489.597 760.046C492.699 763.724 496.724 766.733 501.781 767.856C506.888 768.991 511.809 767.929 516.144 765.761L507.819 749.111ZM537.301 728.671C527.476 737.422 517.643 744.199 507.819 749.111L516.144 765.761C527.65 760.009 538.824 752.243 549.683 742.572L537.301 728.671ZM560.63 694.627C554.256 709.499 546.425 720.687 537.363 728.616L549.621 742.627C561.243 732.459 570.54 718.76 577.741 701.96L560.63 694.627ZM570.059 637.21C570.059 661.529 566.747 680.5 560.644 694.594L577.727 701.991C585.198 684.737 588.674 662.987 588.674 637.21H570.059ZM570.059 406.211V637.21H588.674V406.211H570.059ZM570.204 403.379C569.603 402.871 569.572 402.483 569.706 402.904C569.854 403.37 570.059 404.394 570.059 406.211H588.674C588.674 400.599 587.561 393.68 582.226 389.166L570.204 403.379ZM566.034 402.671C567.892 402.671 569.038 402.864 569.659 403.041C570.26 403.213 570.057 403.278 569.632 402.853L582.798 389.693C578.179 385.071 571.605 384.056 566.034 384.056V402.671ZM516.102 402.671H566.034V384.056H516.102V402.671ZM511.994 403.111C511.713 403.37 511.684 403.246 512.363 403.056C513.06 402.861 514.254 402.671 516.102 402.671V384.056C510.425 384.056 504.041 385.116 499.365 389.434L511.994 403.111ZM512.078 406.211C512.078 404.344 512.272 403.246 512.431 402.705C512.583 402.182 512.585 402.57 511.968 403.134L499.39 389.411C494.426 393.962 493.463 400.766 493.463 406.211H512.078ZM324.016 738.119H305.4V756.735H324.016V738.119ZM339.156 738.119H324.016V756.735H339.156V738.119ZM357.772 738.119H339.156V756.735H357.772V738.119ZM348.464 701.756V747.427H367.08V701.756H348.464ZM339.156 711.064H357.772V692.449H339.156V711.064ZM337.419 711.064H339.156V692.449H337.419V711.064ZM308.751 675.943C308.751 685.443 310.485 694.264 315.452 700.888C320.798 708.015 328.694 711.064 337.419 711.064V692.449C333.237 692.449 331.453 691.195 330.345 689.718C328.859 687.738 327.367 683.652 327.367 675.943H308.751ZM308.751 579.637V675.943H327.367V579.637H308.751ZM272.674 519.876C285.013 524.376 293.779 531.409 299.585 540.835C305.467 550.385 308.751 563.117 308.751 579.637H327.367C327.367 560.747 323.617 544.357 315.435 531.071C307.176 517.662 294.844 508.147 279.053 502.387L272.674 519.876ZM308.751 442.626C308.751 458.592 305.491 471.097 299.585 480.684C293.733 490.184 284.868 497.505 272.406 502.489L279.321 519.774C294.988 513.506 307.222 503.782 315.435 490.447C323.595 477.2 327.367 461.078 327.367 442.626H308.751ZM308.751 346.32V442.626H327.367V346.32H308.751ZM335.93 310.702C327.335 310.702 319.774 314.074 314.827 321.358C310.317 327.998 308.751 336.788 308.751 346.32H327.367C327.367 338.313 328.779 333.948 330.226 331.818C331.236 330.331 332.61 329.318 335.93 329.318V310.702ZM339.156 310.702H335.93V329.318H339.156V310.702ZM357.772 310.702H339.156V329.318H357.772V310.702ZM348.464 274.34V320.01H367.08V274.34H348.464ZM339.156 283.648H357.772V265.032H339.156V283.648ZM324.016 283.648H339.156V265.032H324.016V283.648ZM305.4 283.648H324.016V265.032H305.4V283.648ZM272.973 296.591C280.927 288.108 291.423 283.648 305.4 283.648V265.032C286.945 265.032 271.296 271.162 259.393 283.859L272.973 296.591ZM260.102 338.378C260.102 318.984 264.864 305.487 273.061 296.496L259.305 283.954C246.984 297.467 241.486 316.073 241.486 338.378H260.102ZM260.102 430.215V338.378H241.486V430.215H260.102ZM215.569 497.589C230.347 496.769 242.139 490.087 249.786 477.662C257.054 465.849 260.102 449.64 260.102 430.215H241.486C241.486 448.187 238.577 460.355 233.932 467.905C229.665 474.838 223.585 478.499 214.536 479.003L215.569 497.589ZM224.36 533.47V488.296H205.744V533.47H224.36ZM260.102 591.055C260.102 572.37 257.026 556.639 249.767 544.944C242.201 532.753 230.631 525.835 216.08 524.22L214.024 542.721C223.301 543.752 229.603 547.756 233.95 554.761C238.605 562.26 241.486 573.998 241.486 591.055H260.102ZM260.102 682.892V591.055H241.486V682.892H260.102ZM272.182 724.404C264.612 715.79 260.102 702.449 260.102 682.892H241.486C241.486 705.035 246.574 723.465 258.199 736.693L272.182 724.404ZM305.4 738.119C290.822 738.119 280.099 733.378 272.17 724.391L258.211 736.707C270.138 750.224 286.222 756.735 305.4 756.735V738.119ZM770.791 265.032H752.175V283.648H770.791V265.032ZM817.295 283.859C805.354 271.122 789.516 265.032 770.791 265.032V283.648C785.161 283.648 795.798 288.148 803.713 296.591L817.295 283.859ZM835.698 338.874C835.698 316.479 829.989 297.743 817.374 283.944L803.635 296.506C812.2 305.874 817.082 319.57 817.082 338.874H835.698ZM835.698 430.712V338.874H817.082V430.712H835.698ZM862.648 479.003C853.564 478.498 847.485 474.848 843.233 467.999C838.604 460.54 835.698 448.508 835.698 430.712H817.082C817.082 449.981 820.132 466.08 827.417 477.816C835.079 490.16 846.872 496.77 861.615 497.589L862.648 479.003ZM871.44 533.47V488.296H852.824V533.47H871.44ZM835.698 592.544C835.698 574.405 838.607 562.037 843.289 554.298C847.609 547.158 853.749 543.383 862.776 542.756L861.488 524.185C846.687 525.212 834.955 532.11 827.361 544.661C820.13 556.613 817.082 572.956 817.082 592.544H835.698ZM835.698 683.885V592.544H817.082V683.885H835.698ZM818.385 736.81C830.365 723.631 835.698 705.529 835.698 683.885H817.082C817.082 702.618 812.486 715.624 804.609 724.288L818.385 736.81ZM770.791 756.735C790.236 756.735 806.513 750.266 818.477 736.707L804.518 724.391C796.625 733.336 785.764 738.119 770.791 738.119V756.735ZM752.175 756.735H770.791V738.119H752.175V756.735ZM737.531 756.735H752.175V738.119H737.531V756.735ZM718.915 756.735H737.531V738.119H718.915V756.735ZM709.608 701.756V747.427H728.223V701.756H709.608ZM737.531 692.449H718.915V711.064H737.531V692.449ZM739.765 692.449H737.531V711.064H739.765V692.449ZM748.825 675.943C748.825 683.725 747.39 687.894 745.957 689.907C744.939 691.338 743.427 692.449 739.765 692.449V711.064C748.348 711.064 756.02 707.874 761.125 700.699C765.814 694.108 767.44 685.37 767.44 675.943H748.825ZM748.825 579.141V675.943H767.44V579.141H748.825ZM762.831 529.748C753.354 543.774 748.825 560.387 748.825 579.141H767.44C767.44 563.475 771.184 550.637 778.255 540.171L762.831 529.748ZM797.739 502.35C783.473 507.362 771.83 516.624 762.867 529.695L778.219 540.224C785.141 530.129 793.686 523.506 803.91 519.913L797.739 502.35ZM748.825 442.129C748.825 460.895 752.631 477.239 760.89 490.587C769.211 504.036 781.612 513.729 797.49 519.821L804.159 502.442C791.575 497.613 782.631 490.344 776.721 480.793C770.749 471.141 767.44 458.444 767.44 442.129H748.825ZM748.825 346.32V442.129H767.44V346.32H748.825ZM741.254 329.318C744.013 329.318 745.135 330.142 746.078 331.614C747.476 333.792 748.825 338.247 748.825 346.32H767.44C767.44 336.854 765.976 328.154 761.748 321.562C757.065 314.263 749.748 310.702 741.254 310.702V329.318ZM737.531 329.318H741.254V310.702H737.531V329.318ZM718.915 329.318H737.531V310.702H718.915V329.318ZM709.608 274.34V320.01H728.223V274.34H709.608ZM737.531 265.032H718.915V283.648H737.531V265.032ZM752.175 265.032H737.531V283.648H752.175V265.032Z" fill="black"/>
</g>
<defs>
<clipPath id="clip0_2673_3099">
<rect width="718.565" height="520" fill="white" transform="translate(153 252)"/>
</clipPath>
</defs>
</svg>
